<?xml version="1.0" standalone="no"?>
<!DOCTYPE svg PUBLIC "-//W3C//DTD SVG 20010904//EN"
 "http://www.w3.org/TR/2001/REC-SVG-20010904/DTD/svg10.dtd">
<svg version="1.0" xmlns="http://www.w3.org/2000/svg"
 width="256.000000pt" height="256.000000pt" viewBox="0 0 256.000000 256.000000"
 preserveAspectRatio="xMidYMid meet">
<metadata>
Created by potrace 1.11, written by Peter Selinger 2001-2013
</metadata>
<g transform="translate(0.000000,256.000000) scale(0.100000,-0.100000)"
fill="#000000" stroke="none">
<path d="M1730 2439 c-39 -20 -82 -24 -109 -9 -16 8 -19 4 -23 -39 -3 -26 -13
-64 -24 -83 -10 -20 -32 -60 -48 -89 l-28 -53 49 45 c48 43 167 109 197 109
22 0 27 15 11 36 -19 25 -19 53 2 76 23 25 14 27 -27 7z"/>
<path d="M1046 2429 c-218 -41 -396 -128 -559 -273 -217 -192 -347 -434 -392
-726 -54 -348 62 -711 312 -978 76 -82 80 -83 144 -28 28 24 33 35 34 71 0 54
24 81 76 90 51 9 51 33 0 74 -48 39 -62 39 -83 1 -20 -35 -56 -44 -38 -10 6
12 10 42 8 68 -2 35 -7 48 -21 50 -25 5 -61 -79 -53 -122 l6 -31 -16 24 c-11
15 -18 50 -21 95 -3 47 -11 85 -26 113 -20 39 -26 43 -77 53 -30 6 -66 15 -80
20 l-25 8 26 1 c52 2 98 30 129 79 42 66 41 116 -4 175 -30 39 -33 49 -29 90
4 31 12 51 27 62 32 23 102 66 201 125 50 29 126 79 170 110 44 32 107 67 141
79 58 20 66 21 153 8 92 -14 92 -14 136 -63 50 -55 67 -103 63 -171 -3 -43 -1
-46 27 -56 43 -14 55 -26 55 -56 0 -28 -30 -63 -63 -74 -15 -6 -17 -14 -11
-59 5 -40 14 -61 38 -86 l31 -34 -35 4 -35 3 -6 -70 c-4 -38 -2 -80 2 -93 5
-13 9 -34 9 -48 0 -14 9 -44 20 -66 11 -24 17 -51 14 -62 -10 -34 -46 -109
-67 -139 l-19 -28 -27 25 c-15 14 -32 26 -38 26 -6 0 -20 11 -31 24 l-19 24
-65 -62 -65 -62 38 -22 c33 -19 39 -28 39 -55 0 -18 -7 -50 -14 -72 -15 -42
-12 -54 27 -133 11 -23 11 -36 -2 -84 -8 -32 -13 -59 -11 -62 19 -18 264 -33
329 -20 l31 6 -58 35 c-75 45 -92 62 -92 89 0 18 -7 23 -40 29 -22 4 -42 10
-45 15 -5 9 58 60 74 60 7 0 9 14 7 35 -4 32 -2 35 15 30 17 -6 19 -1 19 45 0
43 3 51 17 48 24 -4 63 -65 63 -98 0 -24 3 -27 26 -22 l25 5 -22 23 -22 24 23
25 c20 21 33 25 104 27 l81 3 -35 40 c-33 38 -35 43 -30 95 4 49 8 56 34 69
29 14 31 13 63 -25 30 -35 32 -43 27 -84 -4 -25 -11 -56 -16 -69 l-9 -24 35
26 c18 15 49 27 67 28 29 2 96 -13 121 -28 14 -8 -5 -35 -50 -69 -37 -28 -53
-34 -96 -34 l-51 -1 25 -20 c14 -12 33 -27 43 -34 15 -10 17 -20 11 -49 -3
-21 -12 -42 -19 -49 -6 -7 -10 -17 -8 -24 6 -18 73 7 73 27 0 25 39 110 51
110 5 0 15 -11 21 -25 6 -14 15 -25 20 -25 4 0 8 -11 8 -25 0 -14 4 -25 8 -25
14 0 123 79 189 137 112 97 250 290 305 427 37 91 66 226 57 265 -5 20 -9 64
-9 98 0 36 -8 85 -19 115 -11 29 -22 68 -26 86 -10 47 -25 29 -25 -29 0 -71
-67 -196 -172 -322 l-48 -59 0 40 c0 22 -7 76 -15 119 -9 43 -18 126 -22 185
-3 59 -10 105 -14 102 -5 -3 -14 -22 -20 -44 -7 -21 -27 -54 -47 -72 l-34 -33
6 35 c4 19 9 94 11 165 l5 130 -20 -52 c-31 -77 -115 -155 -219 -204 -92 -43
-101 -42 -101 19 0 18 -7 49 -15 69 -14 32 -14 39 0 59 8 13 15 45 15 71 l0
47 -60 -59 c-34 -33 -84 -96 -113 -139 l-52 -80 -6 39 c-5 29 1 61 22 124 16
47 29 106 29 132 0 26 16 102 35 170 20 67 34 124 32 126 -2 2 -30 -17 -62
-42 -32 -24 -72 -47 -89 -49 -17 -3 -51 -8 -76 -11 -35 -4 -49 -12 -65 -35
-20 -29 -107 -76 -113 -61 -1 5 6 31 17 59 17 43 19 59 11 109 -6 32 -10 77
-10 100 0 38 3 43 38 60 25 12 38 26 40 42 5 34 30 69 54 77 19 6 19 6 1 19
-37 25 -80 27 -138 6 -49 -19 -155 -29 -155 -16 0 13 147 242 165 257 25 21
21 21 -109 -3z m-522 -641 c13 -50 7 -107 -13 -118 -28 -14 -67 -12 -81 4 -9
12 -3 26 31 75 24 34 46 61 50 61 4 0 9 -10 13 -22z m1316 -717 c0 -4 -19 -29
-43 -55 -46 -49 -76 -57 -131 -36 -62 23 -5 82 89 91 33 3 66 6 73 7 6 1 12
-2 12 -7z m281 -213 c16 -18 29 -38 29 -45 0 -21 -33 -47 -78 -62 -62 -21 -72
-5 -33 49 17 24 31 54 31 67 0 32 16 29 51 -9z"/>
<path d="M2037 2211 c-24 -16 -26 -19 -12 -31 8 -7 15 -22 15 -34 1 -20 2 -20
14 -3 7 9 19 17 26 17 7 0 10 7 6 16 -3 9 -6 24 -6 35 0 24 -8 24 -43 0z"/>
<path d="M2346 2022 c-3 -26 -15 -62 -26 -79 l-20 -33 25 -6 c29 -7 75 -58 75
-82 1 -9 7 0 15 22 7 21 25 51 40 66 l26 28 -37 22 c-20 13 -49 43 -64 67
l-27 43 -7 -48z"/>
<path d="M1929 1864 c-7 -8 -24 -21 -38 -29 -23 -12 -26 -18 -23 -58 l4 -45
33 22 c29 19 33 27 36 74 2 28 3 52 3 52 -1 0 -7 -7 -15 -16z"/>
<path d="M1487 315 c-39 -36 -47 -50 -47 -80 0 -22 6 -38 15 -41 10 -4 15 -21
16 -53 l1 -46 32 70 c31 66 56 195 38 195 -4 0 -29 -20 -55 -45z"/>
<path d="M1586 257 c-4 -25 -19 -67 -32 -92 -14 -25 -21 -45 -16 -45 5 0 30 9
55 20 38 17 48 27 57 58 13 50 14 49 -15 56 -14 4 -30 16 -34 28 -7 19 -9 15
-15 -25z"/>
</g>
</svg>
